<svg width="40" height="40" viewBox="0 0 40 40" fill="none" xmlns="http://www.w3.org/2000/svg">
<g clip-path="url(#clip0_50_16)">
<path fill-rule="evenodd" clip-rule="evenodd" d="M39.6442 16.0081H20.4242C20.4242 18.0081 20.4242 22.0041 20.4102 24.0041H31.5482C31.1222 26.0021 29.6082 28.8001 27.4702 30.2101C27.4702 30.2101 27.4662 30.2221 27.4622 30.2201C24.6202 32.0961 20.8682 32.5221 18.0822 31.9621C13.7162 31.0961 10.2622 27.9301 8.85821 23.9081C8.86621 23.9021 8.87221 23.8461 8.87821 23.8421C8.00021 21.3461 8.00021 18.0061 8.87821 16.0081C10.0082 12.3341 13.5682 8.98212 17.9382 8.06412C21.4562 7.31812 25.4242 8.12612 28.3422 10.8561C28.7302 10.4761 33.7122 5.61212 34.0862 5.21612C24.1162 -3.81388 8.15421 -0.635879 2.18021 11.0221L2.16821 11.0441C0.739995 13.817 -0.00346737 16.8915 1.21575e-05 20.0105C0.00349168 23.1296 0.753812 26.2025 2.18821 28.9721L2.16821 28.9881C3.48334 31.5224 5.31681 33.7518 7.54957 35.5315C9.78232 37.3111 12.3644 38.6013 15.1282 39.3181C21.1482 40.8981 28.8142 39.8181 33.9482 35.1741L33.9542 35.1801C38.3042 31.2641 41.0122 24.5881 39.6442 16.0081Z" fill="white"/>
</g>
<defs>
<clipPath id="clip0_50_16">
<rect width="40" height="40" fill="white"/>
</clipPath>
</defs>
</svg>
