<svg width="40" height="40" viewBox="0 0 40 40" fill="none" xmlns="http://www.w3.org/2000/svg">
<path d="M36.6667 9.66665C35.4139 10.2101 34.0891 10.5694 32.7334 10.7333C34.1637 9.87885 35.2355 8.53462 35.75 6.94998C34.406 7.75009 32.9346 8.31381 31.4 8.61665C30.3743 7.50427 29.0083 6.76381 27.5164 6.5114C26.0245 6.25899 24.4909 6.50891 23.1564 7.22197C21.8218 7.93502 20.7616 9.07087 20.1421 10.4514C19.5226 11.8319 19.3789 13.379 19.7334 14.85C17.0158 14.7125 14.3574 14.0049 11.9311 12.7731C9.50482 11.5413 7.36478 9.81281 5.65004 7.69998C5.0486 8.75026 4.73257 9.93969 4.73337 11.15C4.73124 12.274 5.00707 13.381 5.5363 14.3726C6.06553 15.3642 6.83174 16.2095 7.76671 16.8333C6.68 16.8037 5.61652 16.5121 4.66671 15.9833V16.0667C4.67485 17.6415 5.2267 19.1651 6.2289 20.3799C7.2311 21.5947 8.62213 22.4261 10.1667 22.7333C9.57213 22.9143 8.95483 23.0097 8.33337 23.0167C7.90319 23.0116 7.47408 22.9726 7.05004 22.9C7.48989 24.2547 8.34108 25.4386 9.48517 26.2869C10.6293 27.1353 12.0093 27.6059 13.4334 27.6333C11.0287 29.5254 8.05985 30.5581 5.00004 30.5667C4.44293 30.5685 3.88627 30.5351 3.33337 30.4667C6.45742 32.4837 10.0981 33.5545 13.8167 33.55C16.3829 33.5766 18.9286 33.0917 21.3052 32.1235C23.6819 31.1552 25.8417 29.7231 27.6587 27.9108C29.4757 26.0985 30.9133 23.9423 31.8876 21.5682C32.862 19.194 33.3534 16.6495 33.3334 14.0833C33.3334 13.8 33.3334 13.5 33.3334 13.2C34.6412 12.2247 35.7692 11.029 36.6667 9.66665Z" fill="white"/>
</svg>
